<svg xmlns="http://www.w3.org/2000/svg" xmlns:svg="http://www.w3.org/2000/svg" id="svg884" width="64" height="256" version="1.1" viewBox="0 0 16.933 67.733"><g id="layer1"><path style="fill:#f0f0f0;fill-opacity:0;stroke:#e8e8e9;stroke-width:.529167;stroke-miterlimit:4;stroke-dasharray:none;stroke-opacity:1" id="path2730" d="M 3.4941262,6.6568097 A 5.2916665,5.2916665 0 0 1 9.3855545,3.255392 5.2916665,5.2916665 0 0 1 13.758333,8.4666662"/><path style="fill:#f0f0f0;fill-opacity:0;stroke:#e8e8e9;stroke-width:.529167;stroke-miterlimit:4;stroke-dasharray:none;stroke-opacity:1" id="path3068" d="M 10.276402,20.427572 A 5.2916665,5.2916665 0 0 1 13.67782,26.319 5.2916665,5.2916665 0 0 1 8.4665461,30.691779"/><path style="fill:#f0f0f0;fill-opacity:0;stroke:#e8e8e9;stroke-width:.529167;stroke-miterlimit:4;stroke-dasharray:none;stroke-opacity:1" id="path3172" d="M 13.439086,44.143303 A 5.2916665,5.2916665 0 0 1 7.5476577,47.544721 5.2916665,5.2916665 0 0 1 3.1748796,42.333447"/><path style="fill:#f0f0f0;fill-opacity:0;stroke:#e8e8e9;stroke-width:.529167;stroke-miterlimit:4;stroke-dasharray:none;stroke-opacity:1" id="path3300" d="M 6.6566894,64.239206 A 5.2916665,5.2916665 0 0 1 3.2552719,58.347778 5.2916665,5.2916665 0 0 1 8.4665461,53.975"/></g></svg>